<?xml version="1.0" standalone="no"?>
<!DOCTYPE svg PUBLIC "-//W3C//DTD SVG 20010904//EN"
 "http://www.w3.org/TR/2001/REC-SVG-20010904/DTD/svg10.dtd">
<svg version="1.0" xmlns="http://www.w3.org/2000/svg"
 width="512.000000pt" height="512.000000pt" viewBox="0 0 512.000000 512.000000"
 preserveAspectRatio="xMidYMid meet">

<g transform="translate(0.000000,512.000000) scale(0.100000,-0.100000)"
fill="#000000" stroke="none">
<path d="M2335 5109 c-1148 -107 -2083 -958 -2290 -2083 -78 -424 -48 -863 86
-1268 268 -810 930 -1437 1754 -1663 673 -184 1403 -83 1996 278 672 408 1110
1082 1215 1867 22 168 22 474 0 640 -55 412 -187 764 -412 1100 -357 535 -903
917 -1521 1066 -243 59 -593 85 -828 63z m-687 -1451 c7 -7 12 -38 12 -70 l0
-58 -170 0 c-220 0 -222 9 -19 90 131 52 158 57 177 38z m2270 -80 c7 -7 12
-32 12 -57 0 -40 4 -48 30 -63 16 -9 39 -32 50 -50 18 -31 20 -50 20 -258 0
-207 -2 -228 -20 -258 -11 -18 -34 -41 -52 -52 -33 -20 -54 -20 -1423 -20
-1335 0 -1392 1 -1425 19 -20 11 -44 36 -58 62 -22 41 -23 52 -20 184 3 118 7
148 26 189 34 75 84 129 154 167 l63 34 1283 3 1282 2 0 39 c0 58 45 92 78 59z
m266 -254 c13 -13 16 -43 16 -174 0 -182 -3 -190 -76 -190 l-44 0 0 190 0 190
44 0 c27 0 51 -6 60 -16z m-294 -586 c0 -50 -39 -108 -89 -135 l-44 -23 -1263
0 c-1134 0 -1264 2 -1278 16 -12 11 -16 36 -16 95 l0 79 1345 0 1345 0 0 -32z
m-1730 -219 c0 -6 -45 -152 -99 -323 -54 -171 -102 -321 -106 -333 l-6 -23
-500 0 c-274 0 -499 3 -499 6 0 9 211 667 217 677 7 12 993 9 993 -4z m150
-49 l0 -59 69 -41 c79 -46 94 -71 62 -104 l-21 -21 -53 28 c-28 15 -73 41 -99
57 l-48 30 0 85 0 85 45 0 45 0 0 -60z m380 -38 c0 -139 -17 -191 -88 -262
-82 -82 -113 -90 -339 -90 -101 0 -183 3 -183 6 0 4 5 24 12 45 l11 39 164 0
c182 0 214 7 271 63 42 41 62 109 62 214 l0 83 45 0 45 0 0 -98z m-651 -656
c47 -25 89 -81 96 -129 9 -59 -19 -124 -71 -163 l-37 -29 -471 -3 c-259 -2
-486 0 -504 3 -40 7 -101 59 -118 102 -18 41 -19 204 -2 221 9 9 144 12 545
12 447 0 539 -2 562 -14z"/>
<path d="M1327 3252 c-13 -14 -17 -39 -17 -104 0 -126 -20 -118 318 -118 339
0 322 -6 322 120 0 126 17 120 -323 120 -262 0 -285 -1 -300 -18z m573 -102
l0 -80 -270 0 -270 0 0 80 0 80 270 0 270 0 0 -80z"/>
<path d="M3336 3248 c-11 -16 -16 -46 -16 -100 0 -119 -2 -118 218 -118 97 0
182 4 188 8 23 15 34 52 34 112 0 60 -11 97 -34 112 -6 4 -93 8 -193 8 -177 0
-182 -1 -197 -22z m374 -98 l0 -80 -170 0 -170 0 0 80 0 80 170 0 170 0 0 -80z"/>
<path d="M2158 3166 c-51 -90 -58 -116 -30 -116 11 0 34 28 65 81 50 87 58
119 30 119 -12 0 -34 -29 -65 -84z"/>
<path d="M2387 3169 c-50 -87 -58 -119 -29 -119 11 0 33 29 65 84 50 90 57
116 29 116 -11 0 -34 -28 -65 -81z"/>
<path d="M2610 3159 c-37 -63 -49 -94 -42 -101 19 -19 39 -1 86 81 50 87 56
111 27 111 -13 0 -34 -27 -71 -91z"/>
<path d="M2845 3170 c-53 -91 -60 -115 -31 -115 14 0 34 24 68 84 27 46 47 90
44 98 -12 29 -36 9 -81 -67z"/>
<path d="M3070 3164 c-50 -84 -57 -119 -24 -112 20 4 118 173 109 188 -15 24
-37 5 -85 -76z"/>
<path d="M1340 2194 c-72 -166 -90 -218 -80 -224 7 -4 18 -6 25 -4 16 6 188
421 180 434 -18 29 -39 -5 -125 -206z"/>
<path d="M1626 2402 c-14 -23 -176 -408 -176 -419 0 -19 21 -27 35 -12 19 20
186 420 179 430 -7 11 -31 12 -38 1z"/>
<path d="M1731 2193 c-67 -156 -89 -218 -80 -224 7 -4 18 -5 24 -2 14 5 185
402 185 428 0 8 -8 15 -19 15 -14 0 -37 -46 -110 -217z"/>
</g>
</svg>
